<svg width="16" height="20" viewBox="0 0 16 20" fill="none" xmlns="http://www.w3.org/2000/svg">
<path d="M7.99998 16.6667C7.07776 16.6667 6.21109 16.4917 5.39998 16.1417C4.58887 15.7917 3.88331 15.3167 3.28331 14.7167C2.68331 14.1167 2.20831 13.4111 1.85831 12.6C1.50831 11.7889 1.33331 10.9222 1.33331 10C1.33331 9.0778 1.50831 8.21113 1.85831 7.40002C2.20831 6.58891 2.68331 5.88335 3.28331 5.28335C3.88331 4.68335 4.58887 4.20835 5.39998 3.85835C6.21109 3.50835 7.07776 3.33335 7.99998 3.33335C8.7222 3.33335 9.40554 3.43891 10.05 3.65002C10.6944 3.86113 11.2889 4.15557 11.8333 4.53335L10.8666 5.51669C10.4444 5.25002 9.99442 5.04169 9.51665 4.89169C9.03887 4.74169 8.53331 4.66669 7.99998 4.66669C6.5222 4.66669 5.26387 5.18613 4.22498 6.22502C3.18609 7.26391 2.66665 8.52224 2.66665 10C2.66665 11.4778 3.18609 12.7361 4.22498 13.775C5.26387 14.8139 6.5222 15.3334 7.99998 15.3334C9.47776 15.3334 10.7361 14.8139 11.775 13.775C12.8139 12.7361 13.3333 11.4778 13.3333 10C13.3333 9.80002 13.3222 9.60002 13.3 9.40002C13.2778 9.20002 13.2444 9.00558 13.2 8.81669L14.2833 7.73335C14.4055 8.08891 14.5 8.45558 14.5666 8.83335C14.6333 9.21113 14.6666 9.60002 14.6666 10C14.6666 10.9222 14.4916 11.7889 14.1416 12.6C13.7916 13.4111 13.3166 14.1167 12.7166 14.7167C12.1166 15.3167 11.4111 15.7917 10.6 16.1417C9.78887 16.4917 8.9222 16.6667 7.99998 16.6667ZM7.06665 13.0667L4.23331 10.2334L5.16665 9.30002L7.06665 11.2L13.7333 4.51669L14.6666 5.45002L7.06665 13.0667Z" fill="white"/>
</svg>
