<svg width="32" height="32" viewBox="0 0 32 32" fill="none" xmlns="http://www.w3.org/2000/svg">
<path d="M16 22.6667C14.1389 22.6667 12.5625 22.0209 11.2708 20.7292C9.97918 19.4375 9.33334 17.8611 9.33334 16C9.33334 14.1389 9.97918 12.5625 11.2708 11.2709C12.5625 9.97919 14.1389 9.33335 16 9.33335C16.9583 9.33335 17.875 9.53127 18.75 9.9271C19.625 10.3229 20.375 10.8889 21 11.625V9.33335H22.6667V15.1667H16.8333V13.5H20.3333C19.8889 12.7222 19.2813 12.1111 18.5104 11.6667C17.7396 11.2222 16.9028 11 16 11C14.6111 11 13.4306 11.4861 12.4583 12.4584C11.4861 13.4306 11 14.6111 11 16C11 17.3889 11.4861 18.5695 12.4583 19.5417C13.4306 20.5139 14.6111 21 16 21C17.0695 21 18.0347 20.6945 18.8958 20.0834C19.757 19.4722 20.3611 18.6667 20.7083 17.6667H22.4583C22.0695 19.1389 21.2778 20.3403 20.0833 21.2709C18.8889 22.2014 17.5278 22.6667 16 22.6667Z" fill="#616161"/>
</svg>
