<svg width="40" height="40" viewBox="0 0 40 40" fill="none" xmlns="http://www.w3.org/2000/svg">
<rect width="40" height="40" rx="20" fill="#FF7043" fill-opacity="0.1"/>
<path d="M17.5 25C17.0417 25 16.6493 24.8368 16.3229 24.5105C15.9965 24.1841 15.8333 23.7917 15.8333 23.3334V13.3334C15.8333 12.875 15.9965 12.4827 16.3229 12.1563C16.6493 11.8299 17.0417 11.6667 17.5 11.6667H25C25.4583 11.6667 25.8507 11.8299 26.1771 12.1563C26.5035 12.4827 26.6667 12.875 26.6667 13.3334V23.3334C26.6667 23.7917 26.5035 24.1841 26.1771 24.5105C25.8507 24.8368 25.4583 25 25 25H17.5ZM17.5 23.3334H25V13.3334H17.5V23.3334ZM14.1667 28.3334C13.7083 28.3334 13.316 28.1702 12.9896 27.8438C12.6632 27.5174 12.5 27.125 12.5 26.6667V15H14.1667V26.6667H23.3333V28.3334H14.1667Z" fill="#FF7043"/>
</svg>
