<svg width="20" height="24" viewBox="0 0 20 24" fill="none" xmlns="http://www.w3.org/2000/svg">
<path d="M4.16667 19.5C3.70833 19.5 3.31597 19.3368 2.98958 19.0104C2.66319 18.684 2.5 18.2917 2.5 17.8333V6.16667C2.5 5.70833 2.66319 5.31597 2.98958 4.98958C3.31597 4.66319 3.70833 4.5 4.16667 4.5H7.64583C7.79861 4.01389 8.09722 3.61458 8.54167 3.30208C8.98611 2.98958 9.47222 2.83333 10 2.83333C10.5556 2.83333 11.0521 2.98958 11.4896 3.30208C11.9271 3.61458 12.2222 4.01389 12.375 4.5H15.8333C16.2917 4.5 16.684 4.66319 17.0104 4.98958C17.3368 5.31597 17.5 5.70833 17.5 6.16667V17.8333C17.5 18.2917 17.3368 18.684 17.0104 19.0104C16.684 19.3368 16.2917 19.5 15.8333 19.5H4.16667ZM4.16667 17.8333H15.8333V6.16667H14.1667V8.66667H5.83333V6.16667H4.16667V17.8333ZM10 6.16667C10.2361 6.16667 10.434 6.0868 10.5938 5.92708C10.7535 5.76736 10.8333 5.56944 10.8333 5.33333C10.8333 5.09722 10.7535 4.8993 10.5938 4.73958C10.434 4.57986 10.2361 4.5 10 4.5C9.76389 4.5 9.56597 4.57986 9.40625 4.73958C9.24653 4.8993 9.16667 5.09722 9.16667 5.33333C9.16667 5.56944 9.24653 5.76736 9.40625 5.92708C9.56597 6.0868 9.76389 6.16667 10 6.16667Z" fill="#212121"/>
</svg>
