<svg width="20" height="24" viewBox="0 0 20 24" fill="none" xmlns="http://www.w3.org/2000/svg">
<path d="M4.16667 19.5C3.70833 19.5 3.31597 19.3368 2.98958 19.0104C2.66319 18.684 2.5 18.2917 2.5 17.8333V6.16667C2.5 5.70833 2.66319 5.31597 2.98958 4.98958C3.31597 4.66319 3.70833 4.5 4.16667 4.5H15.8333C16.2917 4.5 16.684 4.66319 17.0104 4.98958C17.3368 5.31597 17.5 5.70833 17.5 6.16667V17.8333C17.5 18.2917 17.3368 18.684 17.0104 19.0104C16.684 19.3368 16.2917 19.5 15.8333 19.5H4.16667ZM4.16667 17.8333H15.8333V6.16667H4.16667V17.8333ZM5 16.1667H15L11.875 12L9.375 15.3333L7.5 12.8333L5 16.1667Z" fill="#212121"/>
</svg>
